<?xml version="1.0" ?><svg fill="none" height="24" viewBox="0 0 24 24" width="24" xmlns="http://www.w3.org/2000/svg"><path clip-rule="evenodd" d="M1 2C1 1.44772 1.44772 1 2 1H22C22.5523 1 23 1.44772 23 2V22C23 22.5523 22.5523 23 22 23H2C1.44772 23 1 22.5523 1 22V2ZM8.5 6H6V8H6.5V16H6V18H9V16H8.5V10.0271L11.0561 17.3304C11.1965 17.7314 11.5751 18 12 18C12.4249 18 12.8035 17.7314 12.9439 17.3304L15.5 10.0271V16H15V18H18V16H17.5V8H18V6H15.5C15.0751 6 14.6965 6.26856 14.5561 6.66965L12 13.9729L9.44386 6.66965C9.30348 6.26856 8.92494 6 8.5 6Z" fill="black" fill-rule="evenodd"/></svg>